<?xml version="1.0" encoding="utf-8"?><svg xmlns="http://www.w3.org/2000/svg" xmlns:xlink="http://www.w3.org/1999/xlink"><symbol viewBox="0 0 15 15.004" id="arrow-left" xmlns="http://www.w3.org/2000/svg"><path d="M7.146 14.856c.198.198.51.198.708 0a.495.495 0 000-.707L1.207 7.502 7.854.856a.495.495 0 000-.707.495.495 0 00-.708 0l-7 7A.482.482 0 000 7.502c0 .138.049.256.146.354l7 7z" fill-rule="evenodd"/><path d="M14.5 8.002c.28 0 .5-.22.5-.5s-.22-.5-.5-.5H.5c-.28 0-.5.22-.5.5s.22.5.5.5h14z" fill-rule="evenodd"/></symbol><symbol viewBox="0 0 12 22" id="btn-go" xmlns="http://www.w3.org/2000/svg"><path fill-rule="evenodd" clip-rule="evenodd" d="M11.354 21.354a.5.5 0 01-.708 0l-10-10a.5.5 0 010-.708l10-10a.5.5 0 01.708.708L1.707 11l9.647 9.646a.5.5 0 010 .708z"/></symbol><symbol viewBox="0 0 6 12" id="chevron-right" xmlns="http://www.w3.org/2000/svg"><path fill-rule="evenodd" clip-rule="evenodd" d="M.146 11.354a.5.5 0 010-.708L4.793 6 .146 1.354A.5.5 0 11.854.646l5 5a.5.5 0 010 .708l-5 5a.5.5 0 01-.708 0z"/></symbol><symbol viewBox="0 0 6 12" id="chevron-rught" xmlns="http://www.w3.org/2000/svg"><path fill-rule="evenodd" clip-rule="evenodd" d="M.146 11.354a.5.5 0 010-.708L4.793 6 .146 1.354A.5.5 0 11.854.646l5 5a.5.5 0 010 .708l-5 5a.5.5 0 01-.708 0z"/></symbol><symbol viewBox="0 0 14 14" id="close" xmlns="http://www.w3.org/2000/svg"><path fill-rule="evenodd" clip-rule="evenodd" d="M13.354.646a.5.5 0 010 .708l-12 12a.5.5 0 01-.708-.708l12-12a.5.5 0 01.708 0z"/><path fill-rule="evenodd" clip-rule="evenodd" d="M.646.646a.5.5 0 01.708 0l12 12a.5.5 0 01-.708.708l-12-12a.5.5 0 010-.708z"/></symbol><symbol viewBox="0 0 20 20" id="crown" xmlns="http://www.w3.org/2000/svg"><path d="M14.34 19.04h-8.9c-2.822 0-5.118-2.58-5.118-5.75V3.71c0-1.3.534-1.75.854-1.9.32-.15.98-.26 1.798.66L5.28 5.06c.089.1.231.1.311 0l3.195-3.59c.588-.66 1.62-.66 2.199 0l3.195 3.59c.09.1.232.1.312 0l2.305-2.59c.819-.92 1.477-.8 1.798-.66.32.15.854.59.854 1.9v9.59c.01 3.43-2.047 5.74-5.109 5.74zM1.71 3.24a1.58 1.58 0 00-.053.47v9.59c0 2.34 1.7 4.25 3.783 4.25h8.9c2.297 0 3.783-1.67 3.783-4.25V3.71c0-.24-.027-.38-.053-.46a1.36 1.36 0 00-.33.29l-2.305 2.59c-.587.66-1.62.66-2.198 0L10.04 2.54c-.089-.1-.231-.1-.311 0L6.543 6.12c-.587.66-1.62.66-2.198 0L2.04 3.53a1.552 1.552 0 00-.33-.29z"/></symbol><symbol viewBox="0 0 22 16" id="eye" xmlns="http://www.w3.org/2000/svg"><path fill-rule="evenodd" clip-rule="evenodd" d="M1.552 8l.038.077a13.847 13.847 0 002.151 3.083C5.308 12.846 7.684 14.5 11 14.5c3.316 0 5.692-1.654 7.259-3.34a13.89 13.89 0 001.733-2.322A11.954 11.954 0 0020.448 8a11.954 11.954 0 00-.456-.838A13.888 13.888 0 0018.26 4.84C16.692 3.154 14.316 1.5 11 1.5S5.308 3.154 3.741 4.84a13.887 13.887 0 00-1.733 2.322A11.957 11.957 0 001.552 8zM21 8l.46-.197-.002-.003-.002-.005-.008-.018a8.424 8.424 0 00-.143-.301c-.1-.201-.251-.486-.453-.825a14.883 14.883 0 00-1.86-2.491C17.307 2.346 14.683.5 11 .5S4.692 2.346 3.009 4.16a14.887 14.887 0 00-1.86 2.49A12.953 12.953 0 00.58 7.713a5.05 5.05 0 00-.029.065l-.008.018-.002.005-.001.002L1 8l-.46-.197a.5.5 0 000 .394L1 8l-.46.197v.001l.002.002.002.005.008.018.03.065a12.953 12.953 0 00.567 1.061 14.886 14.886 0 001.86 2.491C4.692 13.654 7.316 15.5 11 15.5c3.684 0 6.308-1.846 7.991-3.66a14.881 14.881 0 001.86-2.49 12.915 12.915 0 00.568-1.062l.029-.065.008-.018.002-.005.001-.002L21 8zm0 0l.46.197a.501.501 0 000-.394L21 8z"/><path fill-rule="evenodd" clip-rule="evenodd" d="M11 5.5a2.5 2.5 0 100 5 2.5 2.5 0 000-5zM7.5 8a3.5 3.5 0 117 0 3.5 3.5 0 01-7 0z"/></symbol><symbol viewBox="0 0 22 18" id="eye-off" xmlns="http://www.w3.org/2000/svg"><path fill-rule="evenodd" clip-rule="evenodd" d="M9.243 6.538a.5.5 0 01-.025.707 2.5 2.5 0 103.533 3.533.5.5 0 01.732.682 3.5 3.5 0 11-4.947-4.947.5.5 0 01.707.025zm3.77-4.038h.001c2.986 0 5.107 1.55 6.462 3.059a12.376 12.376 0 011.86 2.76 7.486 7.486 0 01.116.252l.007.016.002.004v.002l-.46.192.461-.191a.5.5 0 01-.006.397 11.448 11.448 0 01-1.395 2.316.5.5 0 01-.79-.614c.46-.59.855-1.23 1.179-1.91l-.014-.029a11.377 11.377 0 00-1.705-2.528C17.491 4.843 15.62 3.5 13.015 3.5c-.318 0-.636.021-.951.062a.5.5 0 11-.128-.992c.357-.046.717-.07 1.077-.07z"/><path fill-rule="evenodd" clip-rule="evenodd" d="M5.308 3.155a.784.784 0 01.39-.038.5.5 0 01-.088.992.766.766 0 00-.074.04 3.362 3.362 0 00-.431.328c-.357.31-.8.765-1.265 1.299-.873 1.003-1.773 2.234-2.285 3.23l.035.07a13.847 13.847 0 002.151 3.083C5.308 13.846 7.684 15.5 11 15.5h.001c.868.003 2.172-.346 3.31-.722a31.593 31.593 0 001.958-.722l.029-.012.007-.003.001-.001a.5.5 0 01.387.922L16.5 14.5l.194.461-.004.001-.008.004-.032.013a19.932 19.932 0 01-.56.223c-.371.143-.887.333-1.465.524-1.132.375-2.577.776-3.626.773-3.683 0-6.307-1.846-7.99-3.66a14.886 14.886 0 01-1.86-2.49A12.959 12.959 0 01.58 9.288a5.05 5.05 0 01-.029-.065l-.008-.019L.542 9.2.54 9.197 1 9l-.46.197a.5.5 0 01.008-.41c.543-1.147 1.576-2.562 2.537-3.666A14.67 14.67 0 014.45 3.722c.2-.174.396-.325.573-.43.089-.054.186-.103.286-.137zM4.646.646a.5.5 0 01.708 0l16 16a.5.5 0 01-.708.708l-16-16a.5.5 0 010-.708z"/></symbol><symbol viewBox="0 0 14 22" id="frame" xmlns="http://www.w3.org/2000/svg"><path d="M6.854 10.62h-.071a.43.43 0 00-.16 0c-2.582-.09-4.53-2.37-4.53-5.18 0-2.86 2.073-5.19 4.619-5.19 2.545 0 4.619 2.33 4.619 5.19-.009 2.81-1.967 5.09-4.45 5.18h-.027zm-.142-8.87c-1.807 0-3.285 1.66-3.285 3.69 0 2 1.389 3.61 3.16 3.68.045-.01.17-.01.285 0 1.744-.09 3.115-1.7 3.124-3.68 0-2.03-1.478-3.69-3.284-3.69zm.151 19.8c-1.745 0-3.498-.5-4.824-1.5C.802 19.13.125 17.87.125 16.5c0-1.37.677-2.64 1.914-3.57 2.67-1.99 6.996-1.99 9.648 0 1.228.92 1.914 2.18 1.914 3.55 0 1.37-.677 2.64-1.914 3.57-1.335 1-3.08 1.5-4.824 1.5zm-4.085-7.36c-.855.64-1.318 1.46-1.318 2.32 0 .85.472 1.67 1.318 2.3 2.216 1.67 5.954 1.67 8.17 0 .855-.64 1.318-1.46 1.318-2.32 0-.85-.472-1.67-1.318-2.3-2.216-1.66-5.954-1.66-8.17 0z"/></symbol><symbol viewBox="0 0 20 20" id="heart" xmlns="http://www.w3.org/2000/svg"><path d="M9.57 19.65c-.275 0-.542-.04-.765-.13C5.405 18.21.003 13.56.003 6.69c0-3.5 2.519-6.34 5.616-6.34 1.504 0 2.91.66 3.952 1.84C10.612 1.01 12.018.35 13.523.35c3.097 0 5.616 2.85 5.616 6.34 0 6.88-5.403 11.52-8.803 12.83-.222.09-.49.13-.765.13zM5.62 1.85c-2.359 0-4.281 2.17-4.281 4.84 0 6.83 5.847 10.63 7.903 11.42.16.06.508.06.668 0 2.047-.79 7.904-4.58 7.904-11.42 0-2.67-1.923-4.84-4.281-4.84-1.353 0-2.608.71-3.418 1.94a.643.643 0 01-1.068 0C8.219 2.55 6.973 1.85 5.62 1.85z"/></symbol><symbol viewBox="0 0 22 24" id="house" xmlns="http://www.w3.org/2000/svg"><path d="M19.969 22.75H2.168c-.365 0-.668-.34-.668-.75s.303-.75.668-.75h17.8c.366 0 .668.34.668.75s-.302.75-.667.75z"/><path d="M3.68 22H2.347L2.39 9.97c0-.85.347-1.64.944-2.16l6.23-5.45c.881-.77 2.118-.77 3.008 0l6.23 5.44c.588.52.944 1.33.944 2.17V22h-1.335V9.98c0-.38-.16-.75-.427-.99l-6.23-5.44a1.026 1.026 0 00-1.371 0L4.153 9c-.268.23-.428.6-.428.98L3.681 22z"/><path d="M13.293 22.75h-4.45c-.365 0-.668-.34-.668-.75v-3.5c0-1.24.9-2.25 2.003-2.25h1.78c1.104 0 2.003 1.01 2.003 2.25V22c0 .41-.303.75-.668.75zm-3.783-1.5h3.116V18.5c0-.41-.303-.75-.668-.75h-1.78c-.365 0-.668.34-.668.75v2.75zm5.563-6.75h-1.78c-.854 0-1.557-.79-1.557-1.75v-1.5c0-.96.703-1.75 1.557-1.75h1.78c.855 0 1.558.79 1.558 1.75v1.5c0 .96-.703 1.75-1.558 1.75zm-1.78-3.5c-.124 0-.222.11-.222.25v1.5c0 .14.098.25.222.25h1.78c.125 0 .223-.11.223-.25v-1.5c0-.14-.098-.25-.223-.25h-1.78zm-4.45 3.5h-1.78c-.854 0-1.558-.79-1.558-1.75v-1.5c0-.96.704-1.75 1.558-1.75h1.78c.855 0 1.558.79 1.558 1.75v1.5c0 .96-.703 1.75-1.558 1.75zM7.063 11c-.125 0-.223.11-.223.25v1.5c0 .14.098.25.223.25h1.78c.125 0 .223-.11.223-.25v-1.5c0-.14-.098-.25-.223-.25h-1.78zm10.236-3.25c-.365 0-.668-.33-.668-.74l-.018-2.26h-3.248c-.365 0-.668-.34-.668-.75s.303-.75.668-.75h3.916c.365 0 .667.33.667.74l.027 3c-.009.42-.303.76-.676.76 0 0 .009 0 0 0z"/></symbol><symbol viewBox="0 0 22 22" id="plus-circle" xmlns="http://www.w3.org/2000/svg"><path fill-rule="evenodd" clip-rule="evenodd" d="M11 1.5a9.5 9.5 0 100 19 9.5 9.5 0 000-19zM.5 11C.5 5.201 5.201.5 11 .5S21.5 5.201 21.5 11 16.799 21.5 11 21.5.5 16.799.5 11z"/><path fill-rule="evenodd" clip-rule="evenodd" d="M11 6.5a.5.5 0 01.5.5v8a.5.5 0 01-1 0V7a.5.5 0 01.5-.5z"/><path fill-rule="evenodd" clip-rule="evenodd" d="M6.5 11a.5.5 0 01.5-.5h8a.5.5 0 010 1H7a.5.5 0 01-.5-.5z"/></symbol><symbol viewBox="0 0 20 20" id="search" xmlns="http://www.w3.org/2000/svg"><path fill-rule="evenodd" clip-rule="evenodd" d="M9 1.5a7.5 7.5 0 100 15 7.5 7.5 0 000-15zM.5 9a8.5 8.5 0 1117 0 8.5 8.5 0 01-17 0z"/><path fill-rule="evenodd" clip-rule="evenodd" d="M14.297 14.296a.5.5 0 01.707 0l4.35 4.35a.5.5 0 01-.707.707l-4.35-4.35a.5.5 0 010-.707z"/></symbol><symbol viewBox="0 0 24 24" id="send" xmlns="http://www.w3.org/2000/svg"><g clip-path="url(#nclip0_6_3642)" fill-rule="evenodd" clip-rule="evenodd"><path d="M22.642 11.88a.5.5 0 01-.5.5H6.585a.5.5 0 010-1h15.556a.5.5 0 01.5.5z"/><path d="M22.642 12a.5.5 0 01-.283.45L3.267 21.643a.5.5 0 01-.683-.63L6.05 12 2.584 2.987a.5.5 0 01.683-.63l19.092 9.192a.5.5 0 01.283.45zM3.97 3.805l3.082 8.015a.5.5 0 010 .36L3.97 20.194 20.99 12 3.97 3.805z"/></g><defs><clipPath id="nclip0_6_3642"><path d="M0 0h24v24H0z"/></clipPath></defs></symbol><symbol viewBox="0 0 1024 1024" class="oicon" id="smile" xmlns="http://www.w3.org/2000/svg"><path d="M324.8 440c34.4 0 62.4-28 62.4-62.4s-28-62.4-62.4-62.4-62.4 28-62.4 62.4 28 62.4 62.4 62.4zm374.4 0c34.4 0 62.4-28 62.4-62.4s-28-62.4-62.4-62.4-62.4 28-62.4 62.4 28 62.4 62.4 62.4zM340 709.6c44 34.4 100.8 55.2 172 55.2s128-20.8 172-55.2c26.4-21.6 42.4-42.4 50.4-58.4 6.4-12 .8-27.2-11.2-33.6s-27.2-.8-33.6 11.2c-.8 1.6-3.2 6.4-8 12-7.2 10.4-17.6 20-28.8 29.6-34.4 28-80.8 44.8-140.8 44.8s-105.6-16.8-140.8-44.8c-12-9.6-21.6-20-28.8-29.6-4-5.6-7.2-9.6-8-12-6.4-12-20.8-17.6-33.6-11.2s-17.6 20.8-11.2 33.6c8 16 24 36.8 50.4 58.4z"/><path d="M512 1010.4C235.2 1010.4 9.6 784.8 9.6 508S235.2 5.6 512 5.6s502.4 225.6 502.4 502.4-225.6 502.4-502.4 502.4zm0-956.8c-250.4 0-454.4 204-454.4 454.4s204 454.4 454.4 454.4 454.4-204 454.4-454.4S762.4 53.6 512 53.6z"/></symbol><symbol viewBox="0 0 19 22" id="teacher" xmlns="http://www.w3.org/2000/svg"><path d="M9.255 16c-.757 0-1.522-.22-2.118-.65l-5.358-3.93C.782 10.69.185 9.46.185 8.12c0-1.34.597-2.57 1.593-3.3L7.147.9c1.192-.87 3.052-.87 4.236.01l5.332 3.93c.988.73 1.584 1.96 1.584 3.29s-.596 2.56-1.584 3.29l-5.332 3.93c-.596.44-1.362.65-2.127.65zm0-14.25c-.507 0-1.015.13-1.38.41L2.517 6.08c-.623.46-.988 1.2-.988 2.04 0 .84.356 1.58.988 2.04l5.358 3.93c.74.54 2.039.54 2.777 0l5.332-3.93c.623-.46.979-1.2.979-2.04 0-.84-.356-1.58-.98-2.04l-5.33-3.93c-.375-.26-.882-.4-1.398-.4z"/><path d="M9.246 21.75c-.392 0-.792-.06-1.113-.18l-2.839-1.06c-1.344-.5-2.403-2.15-2.394-3.74l.009-4.69c0-.41.302-.75.667-.75.365 0 .668.34.668.75l-.009 4.69c0 .94.694 2.02 1.486 2.32l2.84 1.06c.356.13 1.014.13 1.37 0l2.84-1.06c.792-.3 1.486-1.38 1.486-2.31v-4.64c0-.41.303-.75.668-.75.364 0 .667.34.667.75v4.64c0 1.59-1.05 3.23-2.394 3.74l-2.84 1.06c-.32.11-.72.17-1.112.17zm8.367-7c-.365 0-.668-.34-.668-.75V8c0-.41.303-.75.668-.75.364 0 .667.34.667.75v6c0 .41-.303.75-.667.75z"/></symbol><symbol viewBox="0 0 16 18" id="user" xmlns="http://www.w3.org/2000/svg"><path fill-rule="evenodd" clip-rule="evenodd" d="M3.5 6a4.5 4.5 0 119 0 4.5 4.5 0 01-9 0zm7.035 4.882a5.5 5.5 0 10-5.07 0C2.602 11.774.5 14.137.5 17a.5.5 0 00.5.5h14a.5.5 0 00.5-.5c0-2.864-2.102-5.226-4.965-6.118zM8 11.5c-3.457 0-6.176 2.253-6.473 5h12.946c-.297-2.747-3.016-5-6.473-5z"/></symbol><symbol viewBox="0 0 21 21" id="watsapp" xmlns="http://www.w3.org/2000/svg"><path d="M17.927 3.063A10.428 10.428 0 0010.537 0C4.757 0 .073 4.667.073 10.427c0 1.823.512 3.646 1.39 5.177L0 21l5.561-1.458c1.537.802 3.22 1.24 4.976 1.24 5.78 0 10.463-4.667 10.463-10.428-.073-2.698-1.098-5.323-3.073-7.291zm-2.342 11.083c-.22.583-1.244 1.166-1.756 1.24a4.104 4.104 0 01-1.61-.073c-.365-.146-.877-.292-1.463-.584-2.634-1.094-4.317-3.719-4.463-3.937-.147-.146-1.098-1.386-1.098-2.698 0-1.313.659-1.896.878-2.188.22-.291.512-.291.732-.291h.512c.146 0 .366-.073.585.437.22.51.732 1.823.805 1.896a.463.463 0 010 .437 1.525 1.525 0 01-.292.438c-.147.146-.293.364-.366.437-.147.146-.293.292-.147.51.147.293.659 1.095 1.464 1.824 1.024.875 1.83 1.166 2.122 1.312.293.146.439.073.585-.073.146-.146.659-.729.805-1.02.146-.292.366-.22.585-.146.22.073 1.537.729 1.757.875.292.146.438.218.512.291.073.22.073.73-.147 1.313z"/></symbol><symbol viewBox="0 0 22 22" id="x-big" xmlns="http://www.w3.org/2000/svg"><path fill-rule="evenodd" clip-rule="evenodd" d="M21.707.293a1 1 0 010 1.414l-20 20a1 1 0 01-1.414-1.414l20-20a1 1 0 011.414 0z"/><path fill-rule="evenodd" clip-rule="evenodd" d="M.293.293a1 1 0 011.414 0l20 20a1 1 0 01-1.414 1.414l-20-20a1 1 0 010-1.414z"/></symbol></svg>