<svg width="20" height="20" viewBox="0 0 20 20" fill="none" xmlns="http://www.w3.org/2000/svg"><path d="M14.34 19.04h-8.9c-2.822 0-5.118-2.58-5.118-5.75V3.71c0-1.3.534-1.75.854-1.9.32-.15.98-.26 1.798.66L5.28 5.06c.089.1.231.1.311 0l3.195-3.59c.588-.66 1.62-.66 2.199 0l3.195 3.59c.09.1.232.1.312 0l2.305-2.59c.819-.92 1.477-.8 1.798-.66.32.15.854.59.854 1.9v9.59c.01 3.43-2.047 5.74-5.109 5.74zM1.71 3.24a1.58 1.58 0 0 0-.053.47v9.59c0 2.34 1.7 4.25 3.783 4.25h8.9c2.297 0 3.783-1.67 3.783-4.25V3.71c0-.24-.027-.38-.053-.46a1.36 1.36 0 0 0-.33.29l-2.305 2.59c-.587.66-1.62.66-2.198 0L10.04 2.54c-.089-.1-.231-.1-.311 0L6.543 6.12c-.587.66-1.62.66-2.198 0L2.04 3.53a1.552 1.552 0 0 0-.33-.29z" fill="#000"/></svg>