<svg width="20" height="20" viewBox="0 0 20 20" fill="none" xmlns="http://www.w3.org/2000/svg">
<path d="M14.3403 19.04H5.43982C2.61836 19.04 0.322021 16.46 0.322021 13.29V3.71001C0.322021 2.41001 0.856053 1.96001 1.17647 1.81001C1.49689 1.66001 2.15553 1.55001 2.97438 2.47001L5.27961 5.06001C5.36862 5.16001 5.51103 5.16001 5.59113 5.06001L8.78642 1.47001C9.37385 0.810006 10.4063 0.810006 10.9848 1.47001L14.1801 5.06001C14.2691 5.16001 14.4115 5.16001 14.4917 5.06001L16.7969 2.47001C17.6157 1.55001 18.2744 1.67001 18.5948 1.81001C18.9152 1.96001 19.4492 2.40001 19.4492 3.71001V13.3C19.4581 16.73 17.4021 19.04 14.3403 19.04ZM1.7105 3.24001C1.6838 3.32001 1.6571 3.47001 1.6571 3.71001V13.3C1.6571 15.64 3.3571 17.55 5.43982 17.55H14.3403C16.6367 17.55 18.1231 15.88 18.1231 13.3V3.71001C18.1231 3.47001 18.0964 3.33001 18.0697 3.25001C17.9985 3.29001 17.8917 3.37001 17.7403 3.54001L15.4351 6.13001C14.8477 6.79001 13.8152 6.79001 13.2367 6.13001L10.0414 2.54001C9.95239 2.44001 9.80998 2.44001 9.72987 2.54001L6.54349 6.12001C5.95605 6.78001 4.92359 6.78001 4.34506 6.12001L2.03982 3.53001C1.88851 3.36001 1.77281 3.28001 1.7105 3.24001Z" fill="black"/>
</svg>
