<svg width="22" height="18" viewBox="0 0 22 18" fill="none" xmlns="http://www.w3.org/2000/svg">
<path fill-rule="evenodd" clip-rule="evenodd" d="M9.24251 6.53805C9.43077 6.74008 9.4196 7.05646 9.21757 7.24471C8.97195 7.47359 8.77494 7.74959 8.6383 8.05625C8.50166 8.36292 8.42819 8.69396 8.42226 9.02964C8.41634 9.36531 8.47809 9.69874 8.60383 10.01C8.72956 10.3213 8.91671 10.6041 9.15411 10.8415C9.3915 11.0789 9.67428 11.2661 9.98558 11.3918C10.2969 11.5175 10.6303 11.5793 10.966 11.5734C11.3017 11.5674 11.6327 11.494 11.9394 11.3573C12.246 11.2207 12.522 11.0237 12.7509 10.778C12.9392 10.576 13.2555 10.5649 13.4576 10.7531C13.6596 10.9414 13.6708 11.2577 13.4825 11.4598C13.1621 11.8036 12.7757 12.0795 12.3464 12.2707C11.917 12.462 11.4536 12.5649 10.9836 12.5732C10.5137 12.5815 10.0469 12.495 9.61106 12.319C9.17525 12.143 8.77936 11.881 8.447 11.5486C8.11465 11.2163 7.85264 10.8204 7.67661 10.3846C7.50058 9.94875 7.41413 9.48194 7.42242 9.012C7.43071 8.54205 7.53357 8.07859 7.72487 7.64926C7.91617 7.21993 8.19198 6.83353 8.53585 6.5131C8.73788 6.32485 9.05426 6.33602 9.24251 6.53805Z" fill="#697586"/>
<path fill-rule="evenodd" clip-rule="evenodd" d="M13.0133 2.5L13.0143 2.5C16 2.5 18.1214 4.04939 19.4756 5.55864C20.1533 6.31396 20.6471 7.06745 20.9718 7.63191C21.1344 7.91465 21.2554 8.15134 21.3364 8.31903C21.3769 8.40291 21.4075 8.46964 21.4284 8.51637C21.4388 8.53973 21.4468 8.5581 21.4524 8.57113L21.459 8.58661L21.4609 8.59127L21.4616 8.59281L21.4618 8.59338C21.4619 8.59361 21.462 8.59382 21.0001 8.78512L21.462 8.59382C21.5148 8.72134 21.5126 8.86502 21.4558 8.99082C21.0826 9.81759 20.6144 10.5952 20.0612 11.3069C19.8917 11.5249 19.5775 11.5642 19.3595 11.3947C19.1415 11.2253 19.1022 10.9111 19.2717 10.6931C19.7305 10.1029 20.1256 9.46236 20.4499 8.78292C20.4454 8.7736 20.4408 8.76398 20.436 8.75406C20.3641 8.60537 20.2543 8.39011 20.105 8.13049C19.8057 7.61024 19.3513 6.91745 18.7313 6.22648C17.4902 4.84326 15.6188 3.50017 13.0147 3.5C12.6969 3.50064 12.3794 3.52134 12.064 3.56201C11.7901 3.59732 11.5395 3.40393 11.5042 3.13006C11.4688 2.85618 11.6622 2.60553 11.9361 2.57022C12.2934 2.52415 12.6532 2.5007 13.0133 2.5Z" fill="#697586"/>
<path fill-rule="evenodd" clip-rule="evenodd" d="M5.30808 3.15455C5.40182 3.12268 5.54202 3.08916 5.69824 3.11717C5.97005 3.16591 6.15089 3.42576 6.10215 3.69757C6.05874 3.93966 5.84786 4.10958 5.61023 4.10941C5.59401 4.11677 5.56938 4.12927 5.53565 4.14944C5.42983 4.21273 5.2848 4.32093 5.10501 4.47706C4.74834 4.78681 4.30452 5.24155 3.83971 5.77592C2.96733 6.77886 2.06654 8.00966 1.55465 9.00544C1.56544 9.02751 1.57715 9.05121 1.58979 9.0765C1.68067 9.25826 1.8194 9.52086 2.00777 9.83733C2.38508 10.4712 2.95847 11.3159 3.7414 12.1591C5.30755 13.8457 7.68407 15.4993 11 15.4993L11.0013 15.4993C11.8687 15.5017 13.1731 15.1533 14.3115 14.7768C14.8697 14.5923 15.3697 14.4073 15.7303 14.2684C15.9104 14.199 16.0554 14.1412 16.1549 14.101C16.2046 14.0809 16.243 14.0652 16.2687 14.0546L16.2975 14.0426L16.3046 14.0397L16.3062 14.039C16.5608 13.9322 16.8541 14.0518 16.961 14.3064C17.0679 14.561 16.9481 14.8541 16.6935 14.961L16.5 14.4999C16.6935 14.961 16.6936 14.9609 16.6935 14.961L16.6902 14.9624L16.6818 14.9659L16.6499 14.9791C16.6222 14.9905 16.5816 15.0071 16.5296 15.0281C16.4256 15.0702 16.2756 15.13 16.0898 15.2015C15.7185 15.3446 15.2028 15.5354 14.6254 15.7263C13.4931 16.1007 12.0479 16.5019 10.9994 16.4993C7.31564 16.4991 4.69235 14.6528 3.0086 12.8395C2.16653 11.9327 1.55242 11.0274 1.14848 10.3488C0.946228 10.009 0.795888 9.72476 0.695365 9.52371C0.645084 9.42315 0.607209 9.3433 0.581484 9.2876C0.56862 9.25975 0.558788 9.23793 0.551957 9.22257L0.543956 9.20442L0.541634 9.19908L0.540892 9.19736C0.540787 9.19712 0.540428 9.19628 1 8.99932L0.540428 9.19628C0.483962 9.06453 0.486759 8.91488 0.54811 8.78533C1.09108 7.63876 2.12432 6.22432 3.0852 5.11964C3.5679 4.56468 4.04536 4.07285 4.44932 3.72203C4.64986 3.54788 4.845 3.3973 5.02238 3.29121C5.11093 3.23825 5.20776 3.18865 5.30808 3.15455Z" fill="#697586"/>
<path fill-rule="evenodd" clip-rule="evenodd" d="M4.64645 0.646447C4.84171 0.451184 5.15829 0.451184 5.35355 0.646447L21.3536 16.6464C21.5488 16.8417 21.5488 17.1583 21.3536 17.3536C21.1583 17.5488 20.8417 17.5488 20.6464 17.3536L4.64645 1.35355C4.45118 1.15829 4.45118 0.841709 4.64645 0.646447Z" fill="#697586"/>
</svg>
