<svg width="22" height="18" viewBox="0 0 22 18" fill="none" xmlns="http://www.w3.org/2000/svg"><path fill-rule="evenodd" clip-rule="evenodd" d="M9.243 6.538a.5.5 0 0 1-.025.707 2.5 2.5 0 1 0 3.533 3.533.5.5 0 0 1 .732.682 3.5 3.5 0 1 1-4.947-4.947.5.5 0 0 1 .707.025zm3.77-4.038h.001c2.986 0 5.107 1.55 6.462 3.059a12.376 12.376 0 0 1 1.86 2.76 7.486 7.486 0 0 1 .116.252l.007.016.002.004v.002l-.46.192.461-.191a.5.5 0 0 1-.006.397 11.448 11.448 0 0 1-1.395 2.316.5.5 0 0 1-.79-.614c.46-.59.855-1.23 1.179-1.91l-.014-.029a11.377 11.377 0 0 0-1.705-2.528C17.491 4.843 15.62 3.5 13.015 3.5c-.318 0-.636.021-.951.062a.5.5 0 1 1-.128-.992c.357-.046.717-.07 1.077-.07z" fill="#697586"/><path fill-rule="evenodd" clip-rule="evenodd" d="M5.308 3.155a.784.784 0 0 1 .39-.038.5.5 0 0 1-.088.992.766.766 0 0 0-.074.04 3.362 3.362 0 0 0-.431.328c-.357.31-.8.765-1.265 1.299-.873 1.003-1.773 2.234-2.285 3.23l.035.07a13.847 13.847 0 0 0 2.151 3.083C5.308 13.846 7.684 15.5 11 15.5h.001c.868.003 2.172-.346 3.31-.722a31.593 31.593 0 0 0 1.958-.722l.029-.012.007-.003.001-.001a.5.5 0 0 1 .387.922L16.5 14.5l.194.461-.004.001-.008.004-.032.013a19.932 19.932 0 0 1-.56.223c-.371.143-.887.333-1.465.524-1.132.375-2.577.776-3.626.773-3.683 0-6.307-1.846-7.99-3.66a14.886 14.886 0 0 1-1.86-2.49A12.959 12.959 0 0 1 .58 9.288a5.05 5.05 0 0 1-.029-.065l-.008-.019L.542 9.2.54 9.197 1 9l-.46.197a.5.5 0 0 1 .008-.41c.543-1.147 1.576-2.562 2.537-3.666A14.67 14.67 0 0 1 4.45 3.722c.2-.174.396-.325.573-.43.089-.054.186-.103.286-.137zM4.646.646a.5.5 0 0 1 .708 0l16 16a.5.5 0 0 1-.708.708l-16-16a.5.5 0 0 1 0-.708z" fill="#697586"/></svg>