<svg width="22" height="16" viewBox="0 0 22 16" fill="none" xmlns="http://www.w3.org/2000/svg">
<path fill-rule="evenodd" clip-rule="evenodd" d="M1.55167 8C1.56327 8.02378 1.57597 8.04954 1.58979 8.07717C1.68067 8.25894 1.8194 8.52154 2.00777 8.83801C2.38508 9.47189 2.95847 10.3166 3.7414 11.1598C5.30755 12.8464 7.68407 14.5 11 14.5C14.3159 14.5 16.6924 12.8464 18.2586 11.1598C19.0415 10.3166 19.6149 9.47189 19.9922 8.83801C20.1806 8.52154 20.3193 8.25894 20.4102 8.07717C20.424 8.04954 20.4367 8.02378 20.4483 8C20.4367 7.97622 20.424 7.95046 20.4102 7.92283C20.3193 7.74106 20.1806 7.47846 19.9922 7.16199C19.6149 6.52811 19.0415 5.68338 18.2586 4.84023C16.6924 3.1536 14.3159 1.5 11 1.5C7.68407 1.5 5.30755 3.1536 3.7414 4.84023C2.95847 5.68338 2.38508 6.52811 2.00777 7.16199C1.8194 7.47846 1.68067 7.74106 1.58979 7.92283C1.57597 7.95046 1.56327 7.97622 1.55167 8ZM21 8C21.4596 7.80304 21.4595 7.80282 21.4594 7.80258L21.4584 7.80024L21.456 7.7949L21.448 7.77675C21.4412 7.76139 21.4314 7.73957 21.4185 7.71172C21.3928 7.65603 21.3549 7.57617 21.3046 7.47561C21.2041 7.27456 21.0538 6.99029 20.8515 6.65051C20.4476 5.97189 19.8335 5.06662 18.9914 4.15977C17.3076 2.3464 14.6841 0.5 11 0.5C7.31593 0.5 4.69245 2.3464 3.0086 4.15977C2.16653 5.06662 1.55242 5.97189 1.14848 6.65051C0.946228 6.99029 0.795888 7.27456 0.695365 7.47561C0.645084 7.57617 0.607209 7.65603 0.581484 7.71172C0.56862 7.73957 0.558788 7.76139 0.551957 7.77675L0.543956 7.7949L0.541634 7.80024L0.540892 7.80196C0.540787 7.8022 0.540427 7.80304 1 8L0.540427 7.80304C0.486524 7.92881 0.486524 8.07119 0.540427 8.19696L1 8C0.540427 8.19696 0.540323 8.19672 0.540427 8.19696L0.540892 8.19804L0.541634 8.19976L0.543956 8.2051L0.551957 8.22325C0.558788 8.23861 0.56862 8.26043 0.581484 8.28828C0.607209 8.34397 0.645084 8.42383 0.695365 8.52439C0.795888 8.72544 0.946228 9.00971 1.14848 9.34949C1.55242 10.0281 2.16653 10.9334 3.0086 11.8402C4.69245 13.6536 7.31593 15.5 11 15.5C14.6841 15.5 17.3076 13.6536 18.9914 11.8402C19.8335 10.9334 20.4476 10.0281 20.8515 9.34949C21.0538 9.00971 21.2041 8.72544 21.3046 8.52439C21.3549 8.42383 21.3928 8.34397 21.4185 8.28828C21.4314 8.26043 21.4412 8.23861 21.448 8.22325L21.456 8.2051L21.4584 8.19976L21.4591 8.19804C21.4592 8.1978 21.4596 8.19696 21 8ZM21 8L21.4596 8.19696C21.5135 8.07119 21.5133 7.92836 21.4594 7.80258L21 8Z" fill="black"/>
<path fill-rule="evenodd" clip-rule="evenodd" d="M11 5.5C9.61929 5.5 8.5 6.61929 8.5 8C8.5 9.38071 9.61929 10.5 11 10.5C12.3807 10.5 13.5 9.38071 13.5 8C13.5 6.61929 12.3807 5.5 11 5.5ZM7.5 8C7.5 6.067 9.067 4.5 11 4.5C12.933 4.5 14.5 6.067 14.5 8C14.5 9.933 12.933 11.5 11 11.5C9.067 11.5 7.5 9.933 7.5 8Z" fill="black"/>
</svg>
