<svg width="22" height="16" viewBox="0 0 22 16" fill="none" xmlns="http://www.w3.org/2000/svg"><path fill-rule="evenodd" clip-rule="evenodd" d="M1.552 8l.038.077a13.847 13.847 0 0 0 2.151 3.083C5.308 12.846 7.684 14.5 11 14.5c3.316 0 5.692-1.654 7.259-3.34a13.89 13.89 0 0 0 1.733-2.322A11.954 11.954 0 0 0 20.448 8a11.954 11.954 0 0 0-.456-.838A13.888 13.888 0 0 0 18.26 4.84C16.692 3.154 14.316 1.5 11 1.5S5.308 3.154 3.741 4.84a13.887 13.887 0 0 0-1.733 2.322A11.957 11.957 0 0 0 1.552 8zM21 8l.46-.197-.002-.003-.002-.005-.008-.018a8.424 8.424 0 0 0-.143-.301c-.1-.201-.251-.486-.453-.825a14.883 14.883 0 0 0-1.86-2.491C17.307 2.346 14.683.5 11 .5S4.692 2.346 3.009 4.16a14.887 14.887 0 0 0-1.86 2.49A12.953 12.953 0 0 0 .58 7.713a5.05 5.05 0 0 0-.029.065l-.008.018-.002.005-.001.002L1 8l-.46-.197a.5.5 0 0 0 0 .394L1 8l-.46.197v.001l.002.002.002.005.008.018.03.065a12.953 12.953 0 0 0 .567 1.061 14.886 14.886 0 0 0 1.86 2.491C4.692 13.654 7.316 15.5 11 15.5c3.684 0 6.308-1.846 7.991-3.66a14.881 14.881 0 0 0 1.86-2.49 12.915 12.915 0 0 0 .568-1.062l.029-.065.008-.018.002-.005.001-.002L21 8zm0 0l.46.197a.501.501 0 0 0 0-.394L21 8z" fill="#000"/><path fill-rule="evenodd" clip-rule="evenodd" d="M11 5.5a2.5 2.5 0 1 0 0 5 2.5 2.5 0 0 0 0-5zM7.5 8a3.5 3.5 0 1 1 7 0 3.5 3.5 0 0 1-7 0z" fill="#000"/></svg>