<svg width="14" height="22" viewBox="0 0 14 22" fill="none" xmlns="http://www.w3.org/2000/svg">
<path d="M6.85406 10.62C6.82736 10.62 6.80956 10.62 6.78286 10.62C6.73836 10.61 6.67605 10.61 6.62265 10.62C4.0415 10.53 2.09229 8.25 2.09229 5.44C2.09229 2.58 4.16611 0.25 6.71166 0.25C9.25721 0.25 11.331 2.58 11.331 5.44C11.3221 8.25 9.36401 10.53 6.88077 10.62C6.87187 10.62 6.86297 10.62 6.85406 10.62ZM6.71166 1.75C4.90485 1.75 3.42736 3.41 3.42736 5.44C3.42736 7.44 4.81585 9.05 6.58705 9.12C6.63155 9.11 6.75616 9.11 6.87187 9.12C8.61637 9.03 9.98705 7.42 9.99595 5.44C9.99595 3.41 8.51846 1.75 6.71166 1.75Z" fill="black"/>
<path d="M6.86294 21.55C5.11844 21.55 3.36503 21.05 2.03886 20.05C0.801684 19.13 0.125244 17.87 0.125244 16.5C0.125244 15.13 0.801684 13.86 2.03886 12.93C4.70901 10.94 9.03467 10.94 11.687 12.93C12.9153 13.85 13.6006 15.11 13.6006 16.48C13.6006 17.85 12.9242 19.12 11.687 20.05C10.3519 21.05 8.60744 21.55 6.86294 21.55ZM2.7776 14.19C1.92315 14.83 1.46032 15.65 1.46032 16.51C1.46032 17.36 1.93205 18.18 2.7776 18.81C4.99383 20.48 8.73205 20.48 10.9483 18.81C11.8027 18.17 12.2656 17.35 12.2656 16.49C12.2656 15.64 11.7938 14.82 10.9483 14.19C8.73205 12.53 4.99383 12.53 2.7776 14.19Z" fill="black"/>
</svg>
