<svg width="14" height="22" viewBox="0 0 14 22" fill="none" xmlns="http://www.w3.org/2000/svg"><path d="M6.854 10.62h-.071a.43.43 0 0 0-.16 0c-2.582-.09-4.53-2.37-4.53-5.18 0-2.86 2.073-5.19 4.619-5.19 2.545 0 4.619 2.33 4.619 5.19-.009 2.81-1.967 5.09-4.45 5.18h-.027zm-.142-8.87c-1.807 0-3.285 1.66-3.285 3.69 0 2 1.389 3.61 3.16 3.68.045-.01.17-.01.285 0 1.744-.09 3.115-1.7 3.124-3.68 0-2.03-1.478-3.69-3.284-3.69zm.151 19.8c-1.745 0-3.498-.5-4.824-1.5C.802 19.13.125 17.87.125 16.5c0-1.37.677-2.64 1.914-3.57 2.67-1.99 6.996-1.99 9.648 0 1.228.92 1.914 2.18 1.914 3.55 0 1.37-.677 2.64-1.914 3.57-1.335 1-3.08 1.5-4.824 1.5zm-4.085-7.36c-.855.64-1.318 1.46-1.318 2.32 0 .85.472 1.67 1.318 2.3 2.216 1.67 5.954 1.67 8.17 0 .855-.64 1.318-1.46 1.318-2.32 0-.85-.472-1.67-1.318-2.3-2.216-1.66-5.954-1.66-8.17 0z" fill="#000"/></svg>