<svg width="20" height="20" viewBox="0 0 20 20" fill="none" xmlns="http://www.w3.org/2000/svg">
<path d="M9.57075 19.65C9.29483 19.65 9.02782 19.61 8.8053 19.52C5.4053 18.21 0.00268555 13.56 0.00268555 6.69001C0.00268555 3.19001 2.52153 0.350006 5.61892 0.350006C7.1231 0.350006 8.52939 1.01001 9.57075 2.19001C10.6121 1.01001 12.0184 0.350006 13.5226 0.350006C16.62 0.350006 19.1388 3.20001 19.1388 6.69001C19.1388 13.57 13.7362 18.21 10.3362 19.52C10.1137 19.61 9.84666 19.65 9.57075 19.65ZM5.61892 1.85001C3.26028 1.85001 1.33776 4.02001 1.33776 6.69001C1.33776 13.52 7.18541 17.32 9.24143 18.11C9.40164 18.17 9.74876 18.17 9.90897 18.11C11.9561 17.32 17.8126 13.53 17.8126 6.69001C17.8126 4.02001 15.8901 1.85001 13.5315 1.85001C12.1786 1.85001 10.9236 2.56001 10.1137 3.79001C9.86447 4.17001 9.29483 4.17001 9.04562 3.79001C8.21787 2.55001 6.9718 1.85001 5.61892 1.85001Z" fill="black"/>
</svg>
