<svg width="20" height="20" viewBox="0 0 20 20" fill="none" xmlns="http://www.w3.org/2000/svg"><path d="M9.57 19.65c-.275 0-.542-.04-.765-.13C5.405 18.21.003 13.56.003 6.69c0-3.5 2.519-6.34 5.616-6.34 1.504 0 2.91.66 3.952 1.84C10.612 1.01 12.018.35 13.523.35c3.097 0 5.616 2.85 5.616 6.34 0 6.88-5.403 11.52-8.803 12.83-.222.09-.49.13-.765.13zM5.62 1.85c-2.359 0-4.281 2.17-4.281 4.84 0 6.83 5.847 10.63 7.903 11.42.16.06.508.06.668 0 2.047-.79 7.904-4.58 7.904-11.42 0-2.67-1.923-4.84-4.281-4.84-1.353 0-2.608.71-3.418 1.94a.643.643 0 0 1-1.068 0C8.219 2.55 6.973 1.85 5.62 1.85z" fill="#000"/></svg>