<svg width="22" height="24" viewBox="0 0 22 24" fill="none" xmlns="http://www.w3.org/2000/svg"><path d="M19.969 22.75H2.168c-.365 0-.668-.34-.668-.75s.303-.75.668-.75h17.8c.366 0 .668.34.668.75s-.302.75-.667.75z" fill="#000"/><path d="M3.68 22H2.347L2.39 9.97c0-.85.347-1.64.944-2.16l6.23-5.45c.881-.77 2.118-.77 3.008 0l6.23 5.44c.588.52.944 1.33.944 2.17V22h-1.335V9.98c0-.38-.16-.75-.427-.99l-6.23-5.44a1.026 1.026 0 0 0-1.371 0L4.153 9c-.268.23-.428.6-.428.98L3.681 22z" fill="#000"/><path d="M13.293 22.75h-4.45c-.365 0-.668-.34-.668-.75v-3.5c0-1.24.9-2.25 2.003-2.25h1.78c1.104 0 2.003 1.01 2.003 2.25V22c0 .41-.303.75-.668.75zm-3.783-1.5h3.116V18.5c0-.41-.303-.75-.668-.75h-1.78c-.365 0-.668.34-.668.75v2.75zm5.563-6.75h-1.78c-.854 0-1.557-.79-1.557-1.75v-1.5c0-.96.703-1.75 1.557-1.75h1.78c.855 0 1.558.79 1.558 1.75v1.5c0 .96-.703 1.75-1.558 1.75zm-1.78-3.5c-.124 0-.222.11-.222.25v1.5c0 .14.098.25.222.25h1.78c.125 0 .223-.11.223-.25v-1.5c0-.14-.098-.25-.223-.25h-1.78zm-4.45 3.5h-1.78c-.854 0-1.558-.79-1.558-1.75v-1.5c0-.96.704-1.75 1.558-1.75h1.78c.855 0 1.558.79 1.558 1.75v1.5c0 .96-.703 1.75-1.558 1.75zM7.063 11c-.125 0-.223.11-.223.25v1.5c0 .14.098.25.223.25h1.78c.125 0 .223-.11.223-.25v-1.5c0-.14-.098-.25-.223-.25h-1.78zm10.236-3.25c-.365 0-.668-.33-.668-.74l-.018-2.26h-3.248c-.365 0-.668-.34-.668-.75s.303-.75.668-.75h3.916c.365 0 .667.33.667.74l.027 3c-.009.42-.303.76-.676.76 0 0 .009 0 0 0z" fill="#000"/></svg>