<svg width="22" height="24" viewBox="0 0 22 24" fill="none" xmlns="http://www.w3.org/2000/svg">
<path d="M19.9686 22.75H2.16754C1.80262 22.75 1.5 22.41 1.5 22C1.5 21.59 1.80262 21.25 2.16754 21.25H19.9686C20.3335 21.25 20.6361 21.59 20.6361 22C20.6361 22.41 20.3335 22.75 19.9686 22.75Z" fill="black"/>
<path d="M3.68078 22H2.3457L2.39021 9.96996C2.39021 9.11996 2.73733 8.32998 3.33366 7.80998L9.56403 2.35997C10.4452 1.58997 11.6824 1.58997 12.5724 2.35997L18.8028 7.79997C19.3902 8.31997 19.7462 9.12996 19.7462 9.96996V22H18.4111V9.97997C18.4111 9.59997 18.2509 9.22998 17.9839 8.98998L11.7536 3.54997C11.353 3.19997 10.7923 3.19997 10.3829 3.54997L4.15251 8.99999C3.88549 9.22999 3.72528 9.59997 3.72528 9.97997L3.68078 22Z" fill="black"/>
<path d="M13.2931 22.75H8.84283C8.47791 22.75 8.17529 22.41 8.17529 22V18.5C8.17529 17.26 9.07425 16.25 10.1779 16.25H11.958C13.0617 16.25 13.9606 17.26 13.9606 18.5V22C13.9606 22.41 13.658 22.75 13.2931 22.75ZM9.51037 21.25H12.6256V18.5C12.6256 18.09 12.3229 17.75 11.958 17.75H10.1779C9.81299 17.75 9.51037 18.09 9.51037 18.5V21.25Z" fill="black"/>
<path d="M15.0733 14.5H13.2932C12.4387 14.5 11.7356 13.71 11.7356 12.75V11.25C11.7356 10.29 12.4387 9.5 13.2932 9.5H15.0733C15.9277 9.5 16.6309 10.29 16.6309 11.25V12.75C16.6309 13.71 15.9277 14.5 15.0733 14.5ZM13.2932 11C13.1686 11 13.0707 11.11 13.0707 11.25V12.75C13.0707 12.89 13.1686 13 13.2932 13H15.0733C15.1979 13 15.2958 12.89 15.2958 12.75V11.25C15.2958 11.11 15.1979 11 15.0733 11H13.2932Z" fill="black"/>
<path d="M8.84307 14.5H7.06296C6.20851 14.5 5.50537 13.71 5.50537 12.75V11.25C5.50537 10.29 6.20851 9.5 7.06296 9.5H8.84307C9.69752 9.5 10.4007 10.29 10.4007 11.25V12.75C10.4007 13.71 9.69752 14.5 8.84307 14.5ZM7.06296 11C6.93836 11 6.84045 11.11 6.84045 11.25V12.75C6.84045 12.89 6.93836 13 7.06296 13H8.84307C8.96767 13 9.06558 12.89 9.06558 12.75V11.25C9.06558 11.11 8.96767 11 8.84307 11H7.06296Z" fill="black"/>
<path d="M17.2986 7.75C16.9337 7.75 16.6311 7.42001 16.6311 7.01001L16.6132 4.75H13.3646C12.9996 4.75 12.697 4.41 12.697 4C12.697 3.59 12.9996 3.25 13.3646 3.25H17.2808C17.6457 3.25 17.9483 3.57999 17.9483 3.98999L17.975 6.98999C17.9661 7.40999 17.6724 7.75 17.2986 7.75C17.2986 7.75 17.3075 7.75 17.2986 7.75Z" fill="black"/>
</svg>
