<svg width="22" height="22" viewBox="0 0 22 22" fill="none" xmlns="http://www.w3.org/2000/svg"><path fill-rule="evenodd" clip-rule="evenodd" d="M11 1.5a9.5 9.5 0 1 0 0 19 9.5 9.5 0 0 0 0-19zM.5 11C.5 5.201 5.201.5 11 .5S21.5 5.201 21.5 11 16.799 21.5 11 21.5.5 16.799.5 11z" fill="#697586"/><path fill-rule="evenodd" clip-rule="evenodd" d="M11 6.5a.5.5 0 0 1 .5.5v8a.5.5 0 0 1-1 0V7a.5.5 0 0 1 .5-.5z" fill="#697586"/><path fill-rule="evenodd" clip-rule="evenodd" d="M6.5 11a.5.5 0 0 1 .5-.5h8a.5.5 0 0 1 0 1H7a.5.5 0 0 1-.5-.5z" fill="#697586"/></svg>