<svg width="20" height="20" viewBox="0 0 20 20" fill="none" xmlns="http://www.w3.org/2000/svg">
<path fill-rule="evenodd" clip-rule="evenodd" d="M9 1.5C4.85786 1.5 1.5 4.85786 1.5 9C1.5 13.1421 4.85786 16.5 9 16.5C13.1421 16.5 16.5 13.1421 16.5 9C16.5 4.85786 13.1421 1.5 9 1.5ZM0.5 9C0.5 4.30558 4.30558 0.5 9 0.5C13.6944 0.5 17.5 4.30558 17.5 9C17.5 13.6944 13.6944 17.5 9 17.5C4.30558 17.5 0.5 13.6944 0.5 9Z" fill="black"/>
<path fill-rule="evenodd" clip-rule="evenodd" d="M14.2968 14.2963C14.4921 14.1011 14.8087 14.1011 15.0039 14.2963L19.3539 18.6463C19.5492 18.8416 19.5492 19.1582 19.3539 19.3535C19.1587 19.5487 18.8421 19.5487 18.6468 19.3535L14.2968 15.0035C14.1016 14.8082 14.1016 14.4916 14.2968 14.2963Z" fill="black"/>
</svg>
