<svg width="24" height="24" viewBox="0 0 24 24" fill="none" xmlns="http://www.w3.org/2000/svg"><g clip-path="url(#a)" fill-rule="evenodd" clip-rule="evenodd" fill="#000"><path d="M22.642 11.88a.5.5 0 0 1-.5.5H6.585a.5.5 0 0 1 0-1h15.556a.5.5 0 0 1 .5.5z"/><path d="M22.642 12a.5.5 0 0 1-.283.45L3.267 21.643a.5.5 0 0 1-.683-.63L6.05 12 2.584 2.987a.5.5 0 0 1 .683-.63l19.092 9.192a.5.5 0 0 1 .283.45zM3.97 3.805l3.082 8.015a.5.5 0 0 1 0 .36L3.97 20.194 20.99 12 3.97 3.805z"/></g><defs><clipPath id="a"><path fill="#fff" d="M0 0h24v24H0z"/></clipPath></defs></svg>