<svg width="24" height="24" viewBox="0 0 24 24" fill="none" xmlns="http://www.w3.org/2000/svg">
<g clip-path="url(#clip0_6_3642)">
<path fill-rule="evenodd" clip-rule="evenodd" d="M22.6415 11.8796C22.6415 12.1557 22.4176 12.3796 22.1415 12.3796H6.58511C6.30896 12.3796 6.08511 12.1557 6.08511 11.8796C6.08511 11.6034 6.30896 11.3796 6.58511 11.3796H22.1415C22.4176 11.3796 22.6415 11.6034 22.6415 11.8796Z" fill="black"/>
<path fill-rule="evenodd" clip-rule="evenodd" d="M22.6421 11.9999C22.6421 12.192 22.5321 12.3671 22.359 12.4504L3.26715 21.6428C3.08244 21.7317 2.86215 21.6989 2.7114 21.5599C2.56064 21.421 2.50998 21.2041 2.58357 21.0128L6.05007 11.9999L2.58357 2.98699C2.50998 2.79565 2.56064 2.57876 2.7114 2.43983C2.86215 2.30089 3.08244 2.26806 3.26715 2.357L22.359 11.5494C22.5321 11.6327 22.6421 11.8078 22.6421 11.9999ZM3.96965 3.80511L7.05245 11.8204C7.09689 11.9359 7.09689 12.0638 7.05245 12.1794L3.96965 20.1947L20.9896 11.9999L3.96965 3.80511Z" fill="black"/>
</g>
<defs>
<clipPath id="clip0_6_3642">
<rect width="24" height="24" fill="white"/>
</clipPath>
</defs>
</svg>
