<svg width="800" height="800" viewBox="0 0 1024 1024" class="icon" xmlns="http://www.w3.org/2000/svg"><path d="M324.8 440c34.4 0 62.4-28 62.4-62.4s-28-62.4-62.4-62.4-62.4 28-62.4 62.4 28 62.4 62.4 62.4zm374.4 0c34.4 0 62.4-28 62.4-62.4s-28-62.4-62.4-62.4-62.4 28-62.4 62.4 28 62.4 62.4 62.4zM340 709.6c44 34.4 100.8 55.2 172 55.2s128-20.8 172-55.2c26.4-21.6 42.4-42.4 50.4-58.4 6.4-12 .8-27.2-11.2-33.6s-27.2-.8-33.6 11.2c-.8 1.6-3.2 6.4-8 12-7.2 10.4-17.6 20-28.8 29.6-34.4 28-80.8 44.8-140.8 44.8s-105.6-16.8-140.8-44.8c-12-9.6-21.6-20-28.8-29.6-4-5.6-7.2-9.6-8-12-6.4-12-20.8-17.6-33.6-11.2s-17.6 20.8-11.2 33.6c8 16 24 36.8 50.4 58.4z"/><path d="M512 1010.4C235.2 1010.4 9.6 784.8 9.6 508S235.2 5.6 512 5.6s502.4 225.6 502.4 502.4-225.6 502.4-502.4 502.4zm0-956.8c-250.4 0-454.4 204-454.4 454.4s204 454.4 454.4 454.4 454.4-204 454.4-454.4S762.4 53.6 512 53.6z"/></svg>