<svg width="19" height="22" viewBox="0 0 19 22" fill="none" xmlns="http://www.w3.org/2000/svg">
<path d="M9.25494 16C8.49839 16 7.73295 15.78 7.13661 15.35L1.7785 11.42C0.781638 10.69 0.185303 9.46 0.185303 8.12C0.185303 6.78 0.781638 5.55 1.7785 4.82L7.14551 0.900004C8.33818 0.0300041 10.1984 0.0300041 11.3822 0.910004L16.7136 4.84C17.7015 5.57 18.2979 6.8 18.2979 8.13C18.2979 9.46 17.7015 10.69 16.7136 11.42L11.3822 15.35C10.7858 15.79 10.0204 16 9.25494 16ZM9.25494 1.75C8.74761 1.75 8.24028 1.88 7.87536 2.16L2.51724 6.08C1.8942 6.54 1.52928 7.28 1.52928 8.12C1.52928 8.96 1.8853 9.7 2.51724 10.16L7.87536 14.09C8.6141 14.63 9.91358 14.63 10.6523 14.09L15.9837 10.16C16.6068 9.7 16.9628 8.96 16.9628 8.12C16.9628 7.28 16.6068 6.54 15.9837 6.08L10.6523 2.15C10.2785 1.89 9.77117 1.75 9.25494 1.75Z" fill="black"/>
<path d="M9.24603 21.75C8.85441 21.75 8.45388 21.69 8.13347 21.57L5.2942 20.51C3.95022 20.01 2.89106 18.36 2.89996 16.77L2.90886 12.08C2.90886 11.67 3.21148 11.33 3.5764 11.33C3.94132 11.33 4.24394 11.67 4.24394 12.08L4.23504 16.77C4.23504 17.71 4.92928 18.79 5.72142 19.09L8.56069 20.15C8.91671 20.28 9.57535 20.28 9.93137 20.15L12.7706 19.09C13.5628 18.79 14.257 17.71 14.257 16.78V12.14C14.257 11.73 14.5596 11.39 14.9246 11.39C15.2895 11.39 15.5921 11.73 15.5921 12.14V16.78C15.5921 18.37 14.5418 20.01 13.1979 20.52L10.3586 21.58C10.0382 21.69 9.63765 21.75 9.24603 21.75Z" fill="black"/>
<path d="M17.6126 14.75C17.2477 14.75 16.9451 14.41 16.9451 14V8C16.9451 7.59 17.2477 7.25 17.6126 7.25C17.9775 7.25 18.2801 7.59 18.2801 8V14C18.2801 14.41 17.9775 14.75 17.6126 14.75Z" fill="black"/>
</svg>
