<svg width="19" height="22" viewBox="0 0 19 22" fill="none" xmlns="http://www.w3.org/2000/svg"><path d="M9.255 16c-.757 0-1.522-.22-2.118-.65l-5.358-3.93C.782 10.69.185 9.46.185 8.12c0-1.34.597-2.57 1.593-3.3L7.147.9c1.192-.87 3.052-.87 4.236.01l5.332 3.93c.988.73 1.584 1.96 1.584 3.29s-.596 2.56-1.584 3.29l-5.332 3.93c-.596.44-1.362.65-2.127.65zm0-14.25c-.507 0-1.015.13-1.38.41L2.517 6.08c-.623.46-.988 1.2-.988 2.04 0 .84.356 1.58.988 2.04l5.358 3.93c.74.54 2.039.54 2.777 0l5.332-3.93c.623-.46.979-1.2.979-2.04 0-.84-.356-1.58-.98-2.04l-5.33-3.93c-.375-.26-.882-.4-1.398-.4z" fill="#000"/><path d="M9.246 21.75c-.392 0-.792-.06-1.113-.18l-2.839-1.06c-1.344-.5-2.403-2.15-2.394-3.74l.009-4.69c0-.41.302-.75.667-.75.365 0 .668.34.668.75l-.009 4.69c0 .94.694 2.02 1.486 2.32l2.84 1.06c.356.13 1.014.13 1.37 0l2.84-1.06c.792-.3 1.486-1.38 1.486-2.31v-4.64c0-.41.303-.75.668-.75.364 0 .667.34.667.75v4.64c0 1.59-1.05 3.23-2.394 3.74l-2.84 1.06c-.32.11-.72.17-1.112.17zm8.367-7c-.365 0-.668-.34-.668-.75V8c0-.41.303-.75.668-.75.364 0 .667.34.667.75v6c0 .41-.303.75-.667.75z" fill="#000"/></svg>