<svg width="16" height="18" viewBox="0 0 16 18" fill="none" xmlns="http://www.w3.org/2000/svg">
<path fill-rule="evenodd" clip-rule="evenodd" d="M3.5 6C3.5 3.51472 5.51472 1.5 8 1.5C10.4853 1.5 12.5 3.51472 12.5 6C12.5 8.48528 10.4853 10.5 8 10.5C5.51472 10.5 3.5 8.48528 3.5 6ZM10.5349 10.8823C12.2967 9.96569 13.5 8.12336 13.5 6C13.5 2.96243 11.0376 0.5 8 0.5C4.96243 0.5 2.5 2.96243 2.5 6C2.5 8.12336 3.70327 9.96569 5.46513 10.8823C2.60206 11.7744 0.5 14.1365 0.5 17C0.5 17.2761 0.723858 17.5 1 17.5H15C15.2761 17.5 15.5 17.2761 15.5 17C15.5 14.1365 13.3979 11.7744 10.5349 10.8823ZM8 11.5C4.54275 11.5 1.82398 13.7531 1.52695 16.5H14.4731C14.176 13.7531 11.4573 11.5 8 11.5Z" fill="#697586"/>
</svg>
