<svg width="80" height="19" viewBox="0 0 80 19" fill="none" xmlns="http://www.w3.org/2000/svg">
<path d="M16.2188 3.19922H14.8359V18.0117H11.9531V10.4766H4.92188V18.0117H2.01562V3.19922H0.644531V0.492188H3.58594C4.5 0.492188 4.91016 0.902344 4.91016 1.81641V7.75781H11.9414V1.81641C11.9414 0.914062 12.375 0.492188 13.2891 0.492188H16.2188V3.19922ZM26.8828 0.117188C32.4844 0.117188 35.9414 4.125 35.9414 9.19922C35.9414 14.8008 31.957 18.2227 26.8828 18.2227C21.2695 18.2227 17.8359 14.2383 17.8359 9.19922C17.8359 3.57422 21.8203 0.117188 26.8828 0.117188ZM26.8711 2.73047C22.957 2.73047 20.5898 5.50781 20.5898 9.1875C20.5898 13.1836 23.3086 15.6211 26.8711 15.6211C30.8086 15.6211 33.1758 12.7969 33.1758 9.1875C33.1758 5.17969 30.4453 2.73047 26.8711 2.73047ZM52.6523 3.19922H51.1758L51.1641 11.3555C51.1641 15.7734 49.0664 18.2344 44.8594 18.2344C40.6758 18.2344 38.6367 15.7148 38.6367 11.3555V3.19922H37.1602V0.492188H40.3359C41.3203 0.492188 41.5312 0.738281 41.5312 1.81641V11.2734C41.5312 13.8164 42.4219 15.3398 44.8828 15.3398C47.3555 15.3398 48.293 13.8281 48.293 11.2734V1.81641C48.293 0.925781 48.7266 0.492188 49.6641 0.492188H52.6523V3.19922ZM60.6914 0.117188C61.7344 0.117188 63.457 0.28125 64.6523 0.972656C65.5312 1.47656 66.1992 2.19141 66.2109 3.62109L66.2344 5.34375L63.5273 5.28516V4.00781C63.5273 3.69141 63.4805 3.52734 63.2109 3.39844C62.5312 3.07031 61.582 2.88281 60.5859 2.88281C59.0742 2.88281 57.668 3.33984 57.668 4.78125C57.668 6.36328 59.25 6.87891 61.0781 7.57031C63.7031 8.56641 66.5742 9.49219 66.5742 13.043C66.5742 16.1836 63.832 18.2344 60.5742 18.2344C57.3281 18.2344 55.3828 16.7109 53.9648 13.7344L56.4609 12.3984C57.4805 14.2383 58.5586 15.457 60.6914 15.457C62.0391 15.457 63.6445 14.7422 63.6445 13.3359C63.6445 11.4258 61.6523 10.8867 60.1406 10.3359C57.2461 9.28125 54.7383 8.00391 54.7383 4.875C54.7383 1.95703 56.9531 0.117188 60.6914 0.117188ZM76.7812 4.60547V3.1875H71.9766V7.75781H78.3281V10.4766H71.9766V15.293H76.7812V13.875H79.582V16.6641C79.582 17.1094 79.4297 17.4258 79.207 17.6484C78.9844 17.8711 78.6797 18.0117 78.2344 18.0117H69.1641V3.1875H67.6875V0.492188H78.2695C78.7266 0.492188 79.0078 0.632812 79.2188 0.84375C79.4297 1.05469 79.582 1.37109 79.582 1.81641V4.60547H76.7812Z" fill="black"/>
</svg>
