<svg width="80" height="19" viewBox="0 0 80 19" fill="none" xmlns="http://www.w3.org/2000/svg"><path d="M16.219 3.2h-1.383v14.812h-2.883v-7.535H4.922v7.535H2.016V3.199H.645V.492h2.94c.915 0 1.325.41 1.325 1.324v5.942h7.031V1.816c0-.902.434-1.324 1.348-1.324h2.93V3.2zM26.883.116c5.601 0 9.058 4.008 9.058 9.082 0 5.602-3.984 9.024-9.058 9.024-5.613 0-9.047-3.985-9.047-9.024 0-5.625 3.984-9.082 9.047-9.082zM26.87 2.73c-3.914 0-6.281 2.778-6.281 6.457 0 3.997 2.719 6.434 6.281 6.434 3.938 0 6.305-2.824 6.305-6.434 0-4.007-2.73-6.457-6.305-6.457zm25.781.47h-1.476l-.012 8.155c0 4.418-2.098 6.88-6.305 6.88-4.183 0-6.222-2.52-6.222-6.88V3.2H37.16V.492h3.176c.984 0 1.195.246 1.195 1.324v9.457c0 2.543.89 4.067 3.352 4.067 2.472 0 3.41-1.512 3.41-4.067V1.816c0-.89.434-1.324 1.371-1.324h2.988V3.2zm8.04-3.083c1.042 0 2.765.164 3.96.856.88.504 1.547 1.218 1.559 2.648l.023 1.723-2.707-.059V4.008c0-.317-.047-.48-.316-.61-.68-.328-1.629-.515-2.625-.515-1.512 0-2.918.457-2.918 1.898 0 1.582 1.582 2.098 3.41 2.79 2.625.995 5.496 1.921 5.496 5.472 0 3.14-2.742 5.191-6 5.191-3.246 0-5.191-1.523-6.61-4.5l2.497-1.336c1.02 1.84 2.098 3.059 4.23 3.059 1.348 0 2.953-.715 2.953-2.121 0-1.91-1.992-2.45-3.503-3-2.895-1.055-5.403-2.332-5.403-5.461 0-2.918 2.215-4.758 5.953-4.758zm16.09 4.488V3.187h-4.805v4.57h6.351v2.72h-6.351v4.816h4.804v-1.418h2.801v2.79c0 .444-.152.76-.375.983-.223.223-.527.364-.973.364h-9.07V3.187h-1.477V.493H78.27c.458 0 .739.14.95.352.21.21.363.527.363.972v2.79h-2.8z" fill="#000"/></svg>